<svg width="17" height="21" viewBox="0 0 17 21" fill="none" xmlns="http://www.w3.org/2000/svg">
<path d="M4.25496 6.83239L4.24275 6.85232L4.23148 6.87279C4.03351 7.23249 3.78227 7.55212 3.48159 7.89551C3.39692 7.9922 3.30186 8.0976 3.20158 8.20877C2.97486 8.46013 2.72149 8.74104 2.5013 9.01781C1.79608 9.90425 1.20776 11.0012 1.20776 12.702C1.20776 14.3659 1.81732 16.024 3.03225 17.2701C4.2574 18.5268 6.04209 19.3077 8.27919 19.3077C10.5163 19.3077 12.301 18.5268 13.5261 17.2701C14.7411 16.024 15.3506 14.3659 15.3506 12.702C15.3506 10.3803 14.1902 8.59961 13.0965 7.45742C12.6282 6.92541 11.9472 6.8055 11.3805 7.00422C11.1249 7.09382 10.8921 7.24724 10.7056 7.44971C10.6197 6.70893 10.416 6.03678 10.1382 5.43658C9.5036 4.06504 8.51086 3.12609 7.79354 2.58917C7.28254 2.20232 6.64044 2.13771 6.10619 2.3518C5.5776 2.56361 5.12975 3.07034 5.10539 3.75982C5.01417 4.68046 4.75677 6.01369 4.25496 6.83239Z" stroke="#00dffc" stroke-width="2" stroke-miterlimit="10"/>
</svg>
