<svg t="1631932512818" class="icon" viewBox="0 0 1024 1024" version="1.1" xmlns="http://www.w3.org/2000/svg" p-id="3380" width="200" height="200"><path d="M390.74 76.73c197.55-18.18 356.94 134.88 371.46 312.9 16.35 198.9-133.05 356.94-312.42 371.91-199.35 16.8-356.49-132.6-372.36-311.97-7.71-88.11 24.06-196.62 84.48-257.49 15-15.45 25.44-27.24 44.04-42.24 50.85-40.86 114.9-66.75 184.83-73.11zM710.9 675.26c2.28-3.18 8.16-9.99 10.89-13.62 4.53-5.46 6.36-7.71 10.44-12.72 6.81-9.99 12.72-18.15 19.08-29.07 68.58-112.17 74.94-259.74 13.17-376.92-25.89-50.4-44.49-70.83-81.75-107.16-143.97-142.14-394.17-137.61-539.04 11.34-103.53 106.26-146.67 275.64-79.47 425.97 21.33 48.6 41.79 77.64 75.39 113.07 108.09 113.52 274.74 152.58 422.79 93.54a404.37 404.37 0 0 0 62.67-31.8c26.34-15.9 47.22-35.88 54.03-40.41 8.64 4.08 98.55 98.55 112.62 113.52 6.36 6.36 12.72 10.89 19.08 17.25l129.42 133.05c8.16 8.16 28.17 33.15 45.87 12.72 17.25-19.53-7.71-36.33-17.7-46.77l-110.34-113.07c-6.81-7.26-13.62-11.82-19.98-18.63l-54.48-55.86c-24.06-24.99-48.15-50.4-72.66-74.49z" fill="#00dffc" p-id="3381"></path></svg>